<?xml version="1.0" encoding="utf-8"?>
<!-- Generator: Adobe Illustrator 16.0.0, SVG Export Plug-In . SVG Version: 6.00 Build 0)  -->
<!DOCTYPE svg PUBLIC "-//W3C//DTD SVG 1.1//EN" "http://www.w3.org/Graphics/SVG/1.1/DTD/svg11.dtd">
<svg version="1.1" id="Layer_1" xmlns="http://www.w3.org/2000/svg" xmlns:xlink="http://www.w3.org/1999/xlink" x="0px" y="0px"
	 width="49.333px" height="61.408px" viewBox="0 0 49.333 61.408" enable-background="new 0 0 49.333 61.408" xml:space="preserve">
<g>
	<g>
		<g>
			<path fill="#00E2A7" d="M34.188,56.99l-0.235-0.004c-0.399-0.006-0.805-0.017-1.214-0.045
				C16.802,55.935,4.645,42.145,5.644,26.197c0.45-7.045,3.443-13.669,8.432-18.652l0.166-0.167l0.237,0.004
				c3.321,0.067,6.593,0.71,9.725,1.913c3.288,1.255,6.28,3.07,8.901,5.404c0.598-1.212,1.282-2.395,2.04-3.525l0.374-0.559
				l0.477,0.473c6.217,6.147,9.387,15.348,8.48,24.611c-0.52,5.267-2.312,10.305-5.184,14.564l-0.199,0.297
				c-1.298,2.307-2.891,4.413-4.739,6.264L34.188,56.99z M14.693,8.498C9.998,13.27,7.178,19.571,6.75,26.267
				c-0.959,15.336,10.732,28.6,26.062,29.566c0.312,0.021,0.618,0.031,0.922,0.039c1.8-1.834,3.342-3.921,4.587-6.207l0.251-0.464
				l0.07,0.032c2.611-4.021,4.242-8.728,4.728-13.645c0.852-8.692-2.011-17.319-7.677-23.228c-0.715,1.123-1.354,2.291-1.907,3.484
				l-0.323,0.698l-0.559-0.526c-2.647-2.48-5.708-4.394-9.099-5.688C20.868,9.203,17.803,8.586,14.693,8.498z"/>
		</g>
		<g>
			<path fill="#00E2A7" d="M34.188,56.99l-0.235-0.004c-0.399-0.006-0.805-0.017-1.214-0.045
				C16.802,55.935,4.645,42.145,5.644,26.197c0.45-7.045,3.443-13.669,8.432-18.652l1.018-0.084l-0.076,0.552
				c-0.157,1.145-3.512,28.073,27.711,33.423l0.624,0.107l-0.188,0.605c-0.905,2.906-2.207,5.637-3.869,8.114l-0.205,0.306
				c-1.297,2.304-2.89,4.407-4.735,6.256L34.188,56.99z M13.801,9.448c-4.16,4.644-6.65,10.558-7.051,16.819
				c-0.959,15.336,10.732,28.6,26.062,29.566c0.312,0.021,0.618,0.031,0.922,0.039c1.8-1.834,3.342-3.921,4.587-6.207l0.251-0.464
				l0.069,0.032c1.363-2.104,2.461-4.393,3.27-6.815C14.639,37.417,13.557,15.553,13.801,9.448z"/>
		</g>
		<g opacity="0.51">
			<path fill="#00E2A7" d="M34.188,56.99l-0.651-0.403c-9.425-19.826-3.282-36.566,1.218-44.781l0.144-0.238
				c0.081-0.136,0.162-0.271,0.251-0.399l0.375-0.547l0.472,0.467c6.217,6.147,9.387,15.348,8.48,24.611
				c-0.52,5.267-2.312,10.305-5.184,14.564l-0.196,0.293c-1.272,2.266-2.841,4.346-4.665,6.183L34.188,56.99z M35.706,12.375
				c-4.326,7.902-10.225,23.952-1.506,43.007c1.608-1.716,2.992-3.637,4.121-5.716l0.251-0.464l0.071,0.032
				c2.611-4.02,4.242-8.728,4.728-13.645C44.222,26.904,41.362,18.282,35.706,12.375z"/>
		</g>
		<g>
			<path fill="#00E2A7" d="M44.557,34.976l-0.865-0.729c-5.158-4.351-10.972-7.778-17.274-10.188
				c-6.094-2.329-12.491-3.644-19.016-3.91L6.68,20.12l0.215-0.69c1.383-4.461,3.865-8.572,7.181-11.885l0.166-0.167l0.237,0.004
				c3.321,0.067,6.593,0.71,9.725,1.913c3.288,1.255,6.28,3.07,8.901,5.404c0.598-1.212,1.282-2.395,2.04-3.525l0.374-0.559
				l0.477,0.473c5.835,5.768,8.973,14.062,8.608,22.758L44.557,34.976z M8.176,19.075c6.393,0.336,12.659,1.663,18.637,3.949
				c6.062,2.315,11.678,5.558,16.709,9.644c0.045-7.729-2.769-15.039-7.828-20.306c-0.715,1.123-1.354,2.291-1.907,3.484
				l-0.323,0.698l-0.559-0.526c-2.647-2.48-5.708-4.394-9.099-5.688c-2.938-1.127-6.003-1.743-9.113-1.832
				C11.756,11.483,9.516,15.121,8.176,19.075z"/>
		</g>
		<g>
			<path fill="#00E2A7" d="M33.953,56.986c-0.399-0.006-0.805-0.017-1.214-0.045C16.802,55.935,4.645,42.145,5.644,26.197
				c0.45-7.045,3.443-13.669,8.432-18.652l0.166-0.167l0.237,0.004c3.321,0.067,6.593,0.71,9.725,1.913
				c1.247,0.476,2.472,1.045,3.638,1.689l0.58,0.323l-0.419,0.513c-3.987,4.905-6.309,10.862-6.711,17.228
				c-0.67,10.688,4.337,20.969,13.068,26.831l0.499,0.333l-0.665,0.764L33.953,56.986z M14.693,8.498
				C9.998,13.27,7.178,19.571,6.75,26.267C5.801,41.447,17.245,54.594,32.343,55.8c-8.189-6.205-12.817-16.324-12.158-26.822
				c0.402-6.373,2.659-12.352,6.539-17.333c-0.943-0.495-1.922-0.937-2.918-1.315C20.868,9.203,17.803,8.586,14.693,8.498z"/>
		</g>
		<g>
			<path fill="#00E2A7" d="M34.188,56.99l-0.651-0.403c-9.425-19.826-3.282-36.566,1.218-44.781l0.144-0.238
				c0.081-0.136,0.162-0.271,0.251-0.399l0.375-0.547l0.472,0.467c6.217,6.147,9.387,15.348,8.48,24.611
				c-0.52,5.267-2.312,10.305-5.184,14.564l-0.196,0.293c-1.272,2.266-2.841,4.346-4.665,6.183L34.188,56.99z M35.706,12.375
				c-4.326,7.902-10.225,23.952-1.506,43.007c1.608-1.716,2.992-3.637,4.121-5.716l0.251-0.464l0.071,0.032
				c2.611-4.02,4.242-8.728,4.728-13.645C44.222,26.904,41.362,18.282,35.706,12.375z"/>
		</g>
	</g>
</g>
</svg>
